<svg version="1.1" id="Layer_1" xmlns="http://www.w3.org/2000/svg" xmlns:xlink="http://www.w3.org/1999/xlink" x="0px" y="0px" 
	height= "900px" width="900px" viewBox="0 0 500 500" enable-background="new 0 0 500 500" xml:space="preserve">
<path fill="#010B19" opacity="1.000000" stroke="none" 
	d="
M313.000000,501.000000 
	C208.666687,501.000000 104.833382,501.000000 1.000056,501.000000 
	C1.000037,334.333405 1.000037,167.666794 1.000019,1.000145 
	C167.666565,1.000097 334.333130,1.000097 500.999756,1.000048 
	C500.999847,167.666519 500.999847,334.333038 500.999939,500.999786 
	C438.500000,501.000000 376.000000,501.000000 313.000000,501.000000 
M315.659332,278.897827 
	C328.540619,269.778748 341.454773,260.705200 354.251434,251.468887 
	C355.503723,250.565018 356.777588,248.663773 356.784973,247.219070 
	C356.872620,230.073013 356.721405,212.925751 356.746338,194.880692 
	C356.764587,191.225861 357.082672,187.537277 356.676575,183.930222 
	C356.468597,182.082581 355.422638,179.743927 353.979523,178.707977 
	C329.995667,161.491089 305.867706,144.475174 281.842804,127.315109 
	C279.534546,125.666405 277.969177,125.818222 275.730652,127.436005 
	C265.379852,134.916519 254.848160,142.147018 244.512589,149.647980 
	C243.330307,150.506012 242.969864,152.496445 242.087616,154.894196 
	C242.087616,160.484909 242.087616,166.075623 242.087616,171.996964 
	C234.002914,171.996964 226.525711,172.361435 219.103683,171.878220 
	C213.465942,171.511185 209.435822,173.646545 205.211975,178.079468 
	C212.502777,178.079468 219.055222,178.079468 226.062958,178.079468 
	C226.062958,191.284882 226.062958,204.049774 225.549500,217.116714 
	C225.371567,217.204865 225.193649,217.293030 224.092422,217.213150 
	C216.524582,217.213150 208.956741,217.213150 201.264832,217.213150 
	C201.264832,223.320312 201.264832,228.761002 201.086746,235.098404 
	C201.086746,278.368561 201.086746,321.638733 201.086746,365.747498 
	C215.477051,355.635254 228.870453,346.128632 242.390228,336.805267 
	C245.013214,334.996368 245.980499,333.056000 245.954742,329.851654 
	C245.834396,314.880646 246.003281,299.907288 246.712906,285.153778 
	C255.788055,291.559143 264.808411,298.045349 274.000488,304.278259 
	C275.302246,305.160950 278.027100,305.651947 279.100891,304.902466 
	C291.180634,296.471313 303.066071,287.761841 315.659332,278.897827 
M220.140274,197.501068 
	C220.140274,193.087738 220.140274,188.674408 220.140274,184.310928 
	C210.475967,184.310928 201.440201,184.310928 192.522583,184.310928 
	C192.522583,193.636459 192.522583,202.643265 192.522583,211.574188 
	C201.857971,211.574188 210.765900,211.574188 220.140274,211.574188 
	C220.140274,207.046707 220.140274,202.770401 220.140274,197.501068 
M223.080170,116.190331 
	C223.080170,108.907471 223.080170,101.624603 223.080170,94.130478 
	C214.372833,94.130478 206.125626,94.130478 197.624268,94.130478 
	C197.624268,102.556030 197.624268,110.777061 197.624268,119.522606 
	C205.535156,119.522606 213.159439,119.592125 220.778137,119.417717 
	C221.561249,119.399796 222.310989,117.924271 223.080170,116.190331 
M184.516235,153.819946 
	C181.096802,153.819946 177.677383,153.819946 174.232224,153.819946 
	C174.232224,161.336288 174.232224,168.129456 174.232224,175.218430 
	C181.502899,175.218430 188.579590,175.218430 195.713608,175.218430 
	C195.713608,167.988403 195.713608,161.071259 195.713608,153.820145 
	C192.121872,153.820145 188.803024,153.820145 184.516235,153.819946 
M217.026764,164.918045 
	C223.369125,165.516266 229.711502,166.114471 236.331589,166.738892 
	C236.331589,159.535172 236.331589,153.459641 236.331589,147.095093 
	C229.884354,147.095093 223.644913,147.095093 216.977264,147.095093 
	C216.977264,152.794357 216.977264,158.404404 217.026764,164.918045 
M146.005295,185.293793 
	C146.080246,186.897217 146.155197,188.500641 146.236313,190.236023 
	C152.677979,190.236023 158.753143,190.236023 165.030548,190.236023 
	C165.030548,183.725357 165.030548,177.501404 165.030548,171.246155 
	C158.629105,171.246155 152.534119,171.246155 146.005264,171.246155 
	C146.005264,175.769501 146.005264,180.057556 146.005295,185.293793 
M176.500702,120.987747 
	C173.406631,120.987747 170.312546,120.987747 167.265778,120.987747 
	C167.265778,127.799278 167.265778,133.980301 167.265778,140.193237 
	C173.695404,140.193237 179.741287,140.193237 185.757675,140.193237 
	C185.757675,133.636002 185.757675,127.440346 185.757675,120.987747 
	C182.746933,120.987747 180.112518,120.987747 176.500702,120.987747 
M187.944336,94.632782 
	C183.818649,94.292473 179.692963,93.952164 175.498016,93.606148 
	C175.498016,98.346710 175.498016,102.109840 175.498016,106.177261 
	C179.759644,106.177261 183.772766,106.177261 188.084686,106.177261 
	C188.084686,102.365578 188.084686,98.901314 187.944336,94.632782 
M238.756714,127.612633 
	C238.674240,125.868744 238.591766,124.124855 238.513138,122.462471 
	C233.951889,122.462471 230.038788,122.462471 225.921051,122.462471 
	C225.921051,126.706017 225.921051,130.649887 225.921051,134.703552 
	C230.195129,134.703552 234.256683,134.703552 238.756699,134.703552 
	C238.756699,132.450287 238.756699,130.490295 238.756714,127.612633 
M168.896301,106.729347 
	C169.145798,104.379807 168.549652,102.950516 165.724014,103.123543 
	C162.640182,103.312378 159.535858,103.166458 156.230042,103.166458 
	C156.230042,107.748764 156.230042,111.790031 156.230042,115.860245 
	C160.524551,115.860245 164.576508,115.860245 168.897141,115.860245 
	C168.897141,112.913712 168.897141,110.279724 168.896301,106.729347 
M208.888458,137.316864 
	C208.888458,134.716385 208.888458,132.115906 208.888458,129.294907 
	C204.373672,129.294907 200.356796,129.294907 196.408661,129.294907 
	C196.408661,133.605377 196.408661,137.608414 196.408661,141.831680 
	C199.794235,141.831680 202.766754,141.691620 205.719727,141.871933 
	C208.552017,142.044861 209.120438,140.572723 208.888458,137.316864 
M158.525970,162.838547 
	C160.605499,162.838547 162.685028,162.838547 164.741028,162.838547 
	C164.741028,158.191269 164.741028,154.283035 164.741028,150.354370 
	C160.438461,150.354370 156.415268,150.354370 152.424683,150.354370 
	C152.424683,154.607742 152.424683,158.498657 152.424683,162.838531 
	C154.349625,162.838531 155.973038,162.838531 158.525970,162.838547 
z"/>
<path fill="#FBE800" opacity="1.000000" stroke="none" 
	d="
M225.015732,217.381180 
	C225.193649,217.293030 225.371567,217.204865 226.132965,216.909912 
	C233.065140,212.275940 239.413834,207.848770 245.813446,203.929611 
	C245.881729,212.897766 245.899063,221.357941 245.692139,230.178040 
	C245.414413,247.560364 245.346588,264.582733 245.340668,281.605133 
	C245.340286,282.714935 245.815048,283.824890 246.068787,284.934784 
	C246.003281,299.907288 245.834396,314.880646 245.954742,329.851654 
	C245.980499,333.056000 245.013214,334.996368 242.390228,336.805267 
	C228.870453,346.128632 215.477051,355.635254 201.086746,365.747498 
	C201.086746,321.638733 201.086746,278.368561 201.503754,234.555191 
	C209.619095,228.468384 217.317413,222.924774 225.015732,217.381180 
z"/>
<path fill="#EAA32D" opacity="1.000000" stroke="none" 
	d="
M242.228363,153.961807 
	C242.969864,152.496445 243.330307,150.506012 244.512589,149.647980 
	C254.848160,142.147018 265.379852,134.916519 275.730652,127.436005 
	C277.969177,125.818222 279.534546,125.666405 281.842804,127.315109 
	C305.867706,144.475174 329.995667,161.491089 353.979523,178.707977 
	C355.422638,179.743927 356.468597,182.082581 356.676575,183.930222 
	C357.082672,187.537277 356.764587,191.225861 356.377228,195.448639 
	C355.724823,196.182480 355.427765,196.328827 355.160187,196.517090 
	C340.812439,206.612076 326.467224,216.710632 312.099792,226.353271 
	C312.068756,219.412231 312.186981,212.922241 311.958313,206.444504 
	C311.903198,204.883087 311.130646,202.767044 309.956207,201.915894 
	C299.611877,194.419067 289.102051,187.150589 278.485535,179.547852 
	C266.296051,170.841370 254.262192,162.401596 242.228363,153.961807 
z"/>
<path fill="#2ACAE1" opacity="1.000000" stroke="none" 
	d="
M312.121704,226.808807 
	C326.467224,216.710632 340.812439,206.612076 355.160187,196.517090 
	C355.427765,196.328827 355.724823,196.182480 356.320496,195.897675 
	C356.721405,212.925751 356.872620,230.073013 356.784973,247.219070 
	C356.777588,248.663773 355.503723,250.565018 354.251434,251.468887 
	C341.454773,260.705200 328.540619,269.778748 315.057220,278.807617 
	C311.113220,276.315887 307.753571,273.938690 304.432892,271.508179 
	C295.288544,264.815277 286.160553,258.100006 277.360962,251.263931 
	C289.171112,243.025803 300.646393,234.917313 312.121704,226.808807 
z"/>
<path fill="#EB288E" opacity="1.000000" stroke="none" 
	d="
M277.026093,251.393570 
	C286.160553,258.100006 295.288544,264.815277 304.432892,271.508179 
	C307.753571,273.938690 311.113220,276.315887 314.729401,278.922241 
	C303.066071,287.761841 291.180634,296.471313 279.100891,304.902466 
	C278.027100,305.651947 275.302246,305.160950 274.000488,304.278259 
	C264.808411,298.045349 255.788055,291.559143 246.390854,285.044281 
	C245.815048,283.824890 245.340286,282.714935 245.340668,281.605133 
	C245.346588,264.582733 245.414413,247.560364 246.023193,230.301178 
	C256.727722,237.174103 266.876923,244.283844 277.026093,251.393570 
z"/>
<path fill="#2ACAE1" opacity="1.000000" stroke="none" 
	d="
M242.157990,154.428009 
	C254.262192,162.401596 266.296051,170.841370 278.224609,179.745117 
	C267.333740,187.946579 256.548157,195.684113 245.762512,203.421631 
	C239.413834,207.848770 233.065140,212.275940 226.389709,216.758881 
	C226.062958,204.049774 226.062958,191.284882 226.062958,178.079468 
	C219.055222,178.079468 212.502777,178.079468 205.211975,178.079468 
	C209.435822,173.646545 213.465942,171.511185 219.103683,171.878220 
	C226.525711,172.361435 234.002914,171.996964 242.087616,171.996964 
	C242.087616,166.075623 242.087616,160.484909 242.157990,154.428009 
z"/>
<path fill="#FBE800" opacity="1.000000" stroke="none" 
	d="
M220.140274,197.997574 
	C220.140274,202.770401 220.140274,207.046707 220.140274,211.574188 
	C210.765900,211.574188 201.857971,211.574188 192.522583,211.574188 
	C192.522583,202.643265 192.522583,193.636459 192.522583,184.310928 
	C201.440201,184.310928 210.475967,184.310928 220.140274,184.310928 
	C220.140274,188.674408 220.140274,193.087738 220.140274,197.997574 
z"/>
<path fill="#F4E101" opacity="1.000000" stroke="none" 
	d="
M223.078186,116.657715 
	C222.310989,117.924271 221.561249,119.399796 220.778137,119.417717 
	C213.159439,119.592125 205.535156,119.522606 197.624268,119.522606 
	C197.624268,110.777061 197.624268,102.556030 197.624268,94.130478 
	C206.125626,94.130478 214.372833,94.130478 223.080170,94.130478 
	C223.080170,101.624603 223.080170,108.907471 223.078186,116.657715 
z"/>
<path fill="#EB288E" opacity="1.000000" stroke="none" 
	d="
M185.000198,153.820038 
	C188.803024,153.820145 192.121872,153.820145 195.713608,153.820145 
	C195.713608,161.071259 195.713608,167.988403 195.713608,175.218430 
	C188.579590,175.218430 181.502899,175.218430 174.232224,175.218430 
	C174.232224,168.129456 174.232224,161.336288 174.232224,153.819946 
	C177.677383,153.819946 181.096802,153.819946 185.000198,153.820038 
z"/>
<path fill="#A4CA44" opacity="1.000000" stroke="none" 
	d="
M217.002014,164.466248 
	C216.977264,158.404404 216.977264,152.794357 216.977264,147.095093 
	C223.644913,147.095093 229.884354,147.095093 236.331589,147.095093 
	C236.331589,153.459641 236.331589,159.535172 236.331589,166.738892 
	C229.711502,166.114471 223.369125,165.516266 217.002014,164.466248 
z"/>
<path fill="#2ACAE1" opacity="1.000000" stroke="none" 
	d="
M146.005280,184.819702 
	C146.005264,180.057556 146.005264,175.769501 146.005264,171.246155 
	C152.534119,171.246155 158.629105,171.246155 165.030548,171.246155 
	C165.030548,177.501404 165.030548,183.725357 165.030548,190.236023 
	C158.753143,190.236023 152.677979,190.236023 146.236313,190.236023 
	C146.155197,188.500641 146.080246,186.897217 146.005280,184.819702 
z"/>
<path fill="#A4CA44" opacity="1.000000" stroke="none" 
	d="
M176.989410,120.987747 
	C180.112518,120.987747 182.746933,120.987747 185.757675,120.987747 
	C185.757675,127.440346 185.757675,133.636002 185.757675,140.193237 
	C179.741287,140.193237 173.695404,140.193237 167.265778,140.193237 
	C167.265778,133.980301 167.265778,127.799278 167.265778,120.987747 
	C170.312546,120.987747 173.406631,120.987747 176.989410,120.987747 
z"/>
<path fill="#A4CA44" opacity="1.000000" stroke="none" 
	d="
M224.554077,217.297165 
	C217.317413,222.924774 209.619095,228.468384 201.592804,234.106842 
	C201.264832,228.761002 201.264832,223.320312 201.264832,217.213150 
	C208.956741,217.213150 216.524582,217.213150 224.554077,217.297165 
z"/>
<path fill="#EB288E" opacity="1.000000" stroke="none" 
	d="
M188.014511,95.034912 
	C188.084686,98.901314 188.084686,102.365578 188.084686,106.177261 
	C183.772766,106.177261 179.759644,106.177261 175.498016,106.177261 
	C175.498016,102.109840 175.498016,98.346710 175.498016,93.606148 
	C179.692963,93.952164 183.818649,94.292473 188.014511,95.034912 
z"/>
<path fill="#EAA32D" opacity="1.000000" stroke="none" 
	d="
M238.756714,128.071472 
	C238.756699,130.490295 238.756699,132.450287 238.756699,134.703552 
	C234.256683,134.703552 230.195129,134.703552 225.921051,134.703552 
	C225.921051,130.649887 225.921051,126.706017 225.921051,122.462471 
	C230.038788,122.462471 233.951889,122.462471 238.513138,122.462471 
	C238.591766,124.124855 238.674240,125.868744 238.756714,128.071472 
z"/>
<path fill="#EAA32D" opacity="1.000000" stroke="none" 
	d="
M168.896729,107.187546 
	C168.897141,110.279724 168.897141,112.913712 168.897141,115.860245 
	C164.576508,115.860245 160.524551,115.860245 156.230042,115.860245 
	C156.230042,111.790031 156.230042,107.748764 156.230042,103.166458 
	C159.535858,103.166458 162.640182,103.312378 165.724014,103.123543 
	C168.549652,102.950516 169.145798,104.379807 168.896729,107.187546 
z"/>
<path fill="#EB288E" opacity="1.000000" stroke="none" 
	d="
M208.887924,137.778595 
	C209.120438,140.572723 208.552017,142.044861 205.719727,141.871933 
	C202.766754,141.691620 199.794235,141.831680 196.408661,141.831680 
	C196.408661,137.608414 196.408661,133.605377 196.408661,129.294907 
	C200.356796,129.294907 204.373672,129.294907 208.888458,129.294907 
	C208.888458,132.115906 208.888458,134.716385 208.887924,137.778595 
z"/>
<path fill="#2ACAE1" opacity="1.000000" stroke="none" 
	d="
M158.061218,162.838531 
	C155.973038,162.838531 154.349625,162.838531 152.424683,162.838531 
	C152.424683,158.498657 152.424683,154.607742 152.424683,150.354370 
	C156.415268,150.354370 160.438461,150.354370 164.741028,150.354370 
	C164.741028,154.283035 164.741028,158.191269 164.741028,162.838547 
	C162.685028,162.838547 160.605499,162.838547 158.061218,162.838531 
z"/>
<path fill="#010B19" opacity="1.000000" stroke="none" 
	d="
M245.813461,203.929626 
	C256.548157,195.684113 267.333740,187.946579 278.380280,180.011795 
	C289.102051,187.150589 299.611877,194.419067 309.956207,201.915894 
	C311.130646,202.767044 311.903198,204.883087 311.958313,206.444504 
	C312.186981,212.922241 312.068756,219.412231 312.099792,226.353271 
	C300.646393,234.917313 289.171112,243.025803 277.360962,251.263931 
	C266.876923,244.283844 256.727722,237.174103 246.247467,229.941238 
	C245.899063,221.357941 245.881729,212.897766 245.813461,203.929626 
z"/>
</svg>